<?xml version="1.0" encoding="utf-8"?>
<!-- Generator: Adobe Illustrator 23.0.1, SVG Export Plug-In . SVG Version: 6.00 Build 0)  -->
<svg version="1.1" id="Layer_1" xmlns="http://www.w3.org/2000/svg" xmlns:xlink="http://www.w3.org/1999/xlink" x="0px" y="0px"
	 viewBox="0 0 1320.817 283.404" style="enable-background:new 0 0 1320.817 283.404;" xml:space="preserve">
<style type="text/css">
	.st0{fill:none;stroke:#231F20;stroke-width:0.991;stroke-miterlimit:10;}
	.st1{fill:#F65209;}
	.st2{fill:#FFFFFF;}
</style>
<g>
	<g>
		<polygon points="437.557,89.856 344.705,89.856 344.705,113.422 377.384,113.422 377.384,199.833 404.093,199.833 
			404.093,113.422 437.557,113.422 		"/>
		<path d="M503.387,126.62c-3.563-3.771-7.777-6.702-12.647-8.798c-4.87-2.095-10.239-3.143-16.104-3.143
			c-6.182,0-11.862,1.075-17.047,3.221c-5.185,2.148-9.662,5.185-13.433,9.112s-6.704,8.563-8.798,13.904
			c-2.097,5.342-3.143,11.209-3.143,17.597c0,8.274,1.886,15.632,5.656,22.073s9.059,11.523,15.868,15.24
			c6.807,3.719,14.819,5.577,24.037,5.577c3.771,0,7.566-0.447,11.391-1.336c3.822-0.889,7.566-2.224,11.234-4.006
			c3.664-1.78,7.121-4.085,10.369-6.913l-11.783-16.653c-3.248,2.514-6.261,4.296-9.034,5.342c-2.776,1.048-5.946,1.571-9.506,1.571
			c-5.133,0-9.559-0.943-13.275-2.828c-3.719-1.886-6.547-4.529-8.484-7.935c-0.895-1.571-1.574-3.277-2.055-5.105h57.281
			l0.156-6.756c0.209-6.073-0.629-11.678-2.514-16.811C509.672,134.843,506.947,130.39,503.387,126.62z M457.983,145.237
			c1.465-3.088,3.638-5.444,6.52-7.069c2.88-1.623,6.363-2.436,10.448-2.436c2.931,0,5.55,0.577,7.855,1.729
			c2.302,1.153,4.163,2.749,5.577,4.791c1.414,2.043,2.224,4.375,2.435,6.992v0.157h-34.263
			C456.909,147.896,457.381,146.504,457.983,145.237z"/>
		<rect x="527.252" y="83.572" width="25.138" height="116.261"/>
		<path d="M636.642,126.62c-3.563-3.771-7.777-6.702-12.647-8.798c-4.871-2.095-10.239-3.143-16.104-3.143
			c-6.182,0-11.862,1.075-17.047,3.221c-5.185,2.148-9.662,5.185-13.433,9.112s-6.704,8.563-8.798,13.904
			c-2.097,5.342-3.143,11.209-3.143,17.597c0,8.274,1.885,15.632,5.656,22.073c3.771,6.441,9.058,11.523,15.867,15.24
			c6.808,3.719,14.82,5.577,24.038,5.577c3.771,0,7.566-0.447,11.391-1.336c3.822-0.889,7.565-2.224,11.233-4.006
			c3.665-1.78,7.121-4.085,10.369-6.913l-11.783-16.653c-3.248,2.514-6.26,4.296-9.034,5.342c-2.776,1.048-5.945,1.571-9.505,1.571
			c-5.133,0-9.559-0.943-13.275-2.828c-3.72-1.886-6.547-4.529-8.484-7.935c-0.896-1.571-1.574-3.277-2.055-5.105h57.28l0.156-6.756
			c0.209-6.073-0.628-11.678-2.514-16.811C642.926,134.843,640.201,130.39,636.642,126.62z M591.237,145.237
			c1.466-3.088,3.639-5.444,6.521-7.069c2.879-1.623,6.362-2.436,10.447-2.436c2.932,0,5.551,0.577,7.855,1.729
			c2.303,1.153,4.164,2.749,5.578,4.791c1.413,2.043,2.224,4.375,2.435,6.992v0.157h-34.263
			C590.164,147.896,590.635,146.504,591.237,145.237z"/>
		<rect x="669.208" y="143.116" width="42.359" height="23.096"/>
		<path d="M803.619,117.036c0,4.296,0.024,8.275,0.078,11.94c0.052,3.668,0.157,7.07,0.314,10.212
			c0.157,3.143,0.365,6.233,0.628,9.27c0.261,3.039,0.55,6.128,0.864,9.27c0.073,0.735,0.154,1.481,0.239,2.233l-51.457-70.104
			h-23.881v109.977h25.924v-36.764c0-2.617-0.027-5-0.079-7.148c-0.054-2.146-0.133-4.32-0.235-6.52
			c-0.105-2.2-0.29-4.66-0.55-7.385c-0.263-2.723-0.577-5.838-0.942-9.348c-0.052-0.492-0.105-1.003-0.16-1.525l50.984,68.689
			h24.195V89.856h-25.923V117.036z"/>
		<path d="M905.923,126.53c-1.51-1.964-3.233-3.745-5.185-5.33c-2.514-2.043-5.42-3.639-8.719-4.792
			c-3.3-1.151-6.94-1.729-10.92-1.729c-7.227,0-13.668,1.86-19.324,5.577c-5.656,3.72-10.108,8.825-13.354,15.318
			c-3.247,6.495-4.87,13.982-4.87,22.467c0,8.275,1.623,15.687,4.87,22.23c3.246,6.548,7.62,11.681,13.119,15.397
			c5.499,3.719,11.756,5.577,18.774,5.577c3.771,0,7.33-0.577,10.684-1.729c3.351-1.151,6.388-2.723,9.112-4.713
			c2.01-1.468,3.788-3.111,5.342-4.923v9.95h25.451v-83.425h-24.98V126.53z M897.282,177.366c-2.828,1.782-6.182,2.671-10.055,2.671
			c-3.771,0-7.046-0.889-9.819-2.671c-2.776-1.779-4.949-4.32-6.521-7.62c-1.571-3.299-2.356-7.199-2.356-11.704
			c0-4.502,0.785-8.405,2.356-11.705c1.571-3.299,3.744-5.864,6.521-7.698c2.773-1.831,6.049-2.749,9.819-2.749
			c3.873,0,7.227,0.918,10.055,2.749c2.828,1.834,5.027,4.399,6.599,7.698c1.571,3.3,2.356,7.203,2.356,11.705
			c0,4.505-0.785,8.405-2.356,11.704C902.31,173.045,900.111,175.586,897.282,177.366z"/>
		<path d="M1000.588,166.211c0,2.096-0.368,4.006-1.1,5.734c-0.734,1.728-1.756,3.247-3.063,4.556
			c-1.312,1.312-2.883,2.332-4.714,3.063c-1.834,0.734-3.849,1.101-6.049,1.101c-2.934,0-5.447-0.653-7.541-1.964
			c-2.097-1.309-3.667-3.167-4.713-5.578c-1.049-2.408-1.571-5.287-1.571-8.641v-48.075h-25.295v51.531
			c0,7.019,1.179,13.04,3.535,18.068c2.356,5.027,5.707,8.876,10.055,11.547c4.346,2.671,9.608,4.007,15.79,4.007
			c4.607,0,8.955-0.918,13.04-2.75c4.085-1.831,7.593-4.293,10.526-7.384c0.71-0.749,1.369-1.525,1.982-2.326l0.689,10.731h23.724
			v-83.425h-25.295V166.211z"/>
		<polygon points="1095.237,116.408 1066.486,145.97 1066.486,83.572 1041.349,83.572 1041.349,199.833 1066.486,199.833 
			1066.486,174.44 1073.33,168.024 1097.908,199.833 1127.603,199.833 1089.884,152.505 1128.388,116.408 		"/>
		<path d="M1192.646,126.53c-1.51-1.964-3.233-3.745-5.185-5.33c-2.514-2.043-5.42-3.639-8.719-4.792
			c-3.3-1.151-6.94-1.729-10.92-1.729c-7.227,0-13.668,1.86-19.324,5.577c-5.656,3.72-10.108,8.825-13.354,15.318
			c-3.247,6.495-4.87,13.982-4.87,22.467c0,8.275,1.623,15.687,4.87,22.23c3.246,6.548,7.62,11.681,13.119,15.397
			c5.499,3.719,11.756,5.577,18.774,5.577c3.771,0,7.33-0.577,10.684-1.729c3.351-1.151,6.388-2.723,9.112-4.713
			c2.01-1.468,3.788-3.111,5.342-4.923v9.95h25.451v-83.425h-24.98V126.53z M1184.005,177.366
			c-2.828,1.782-6.182,2.671-10.055,2.671c-3.771,0-7.046-0.889-9.819-2.671c-2.776-1.779-4.949-4.32-6.521-7.62
			c-1.571-3.299-2.356-7.199-2.356-11.704c0-4.502,0.785-8.405,2.356-11.705c1.571-3.299,3.744-5.864,6.521-7.698
			c2.773-1.831,6.049-2.749,9.819-2.749c3.873,0,7.227,0.918,10.055,2.749c2.828,1.834,5.027,4.399,6.599,7.698
			c1.571,3.3,2.356,7.203,2.356,11.705c0,4.505-0.785,8.405-2.356,11.704C1189.032,173.045,1186.833,175.586,1184.005,177.366z"/>
		<path d="M1236.017,185.866c-2.106,0-3.824,0.693-5.154,2.078c-1.33,1.386-1.995,3.188-1.995,5.404c0,2.384,0.624,4.212,1.87,5.486
			c1.248,1.274,3.006,1.912,5.279,1.912c2.162,0,3.908-0.693,5.238-2.078s1.995-3.159,1.995-5.32c0-2.383-0.638-4.227-1.912-5.529
			C1240.063,186.518,1238.289,185.866,1236.017,185.866z"/>
		<path d="M1289.142,157.807c-2.939-1.967-6.292-2.951-10.061-2.951c-2.55,0-4.975,0.457-7.274,1.372
			c-2.3,0.914-4.198,2.12-5.694,3.616c-0.216,0.216-0.396,0.443-0.589,0.667l-0.243-4.824h-12.637v62.437h13.385v-22.779
			c1.551,1.608,3.463,2.883,5.736,3.824c2.272,0.941,4.656,1.413,7.15,1.413c3.824,0,7.219-0.983,10.184-2.951
			c2.965-1.967,5.293-4.669,6.984-8.105c1.689-3.437,2.535-7.371,2.535-11.806c0-4.49-0.846-8.438-2.535-11.848
			C1294.392,162.463,1292.078,159.775,1289.142,157.807z M1284.402,183.87c-0.83,1.719-1.994,3.063-3.491,4.032
			c-1.497,0.971-3.242,1.455-5.237,1.455c-2.051,0-3.824-0.484-5.32-1.455c-1.497-0.969-2.661-2.313-3.492-4.032
			c-0.832-1.717-1.248-3.768-1.248-6.151c0-2.328,0.416-4.378,1.248-6.152c0.831-1.773,1.995-3.131,3.492-4.074
			c1.496-0.941,3.27-1.413,5.32-1.413c2.05,0,3.81,0.486,5.279,1.455c1.468,0.971,2.619,2.328,3.449,4.073
			c0.832,1.746,1.248,3.783,1.248,6.111C1285.65,180.103,1285.234,182.153,1284.402,183.87z"/>
		<rect x="1307.515" y="138.312" width="13.302" height="61.521"/>
	</g>
	<circle class="st1" cx="141.702" cy="141.702" r="141.702"/>
	<path class="st2" d="M157.353,166.535l45.969-18.592v48.382c0,11.248-25.383,20.366-56.695,20.366s-56.695-9.118-56.695-20.366
		v-46.869l42.227,17.078c4,1.729,8.237,2.605,12.597,2.605S153.354,168.263,157.353,166.535z M251.861,109.546l-99.447-34.019
		c-4.942-1.827-10.374-1.827-15.315,0l-99.447,34.019c-3.742,1.384-3.894,6.619-0.239,8.219l30.347,12.274l2.398,0.952
		c-2.105,2.376-2.398,4.858-2.398,7.695V178.6c0,4.859-1.053,9.66-3.085,14.074l-0.031,0.067c-1.394,3.028-3.357,6.092-3.357,9.533
		c0,6.25,5.067,11.316,11.316,11.316c6.25,0,11.316-5.066,11.316-11.316c0-0.864-0.133-1.717-0.354-2.557
		c-0.613-2.334-1.899-4.576-2.875-6.698c-0.011-0.023-0.021-0.047-0.032-0.07c-2.105-4.575-3.212-9.546-3.212-14.582v-39.079
		c0-3.262,2.055-6.17,5.13-7.26l55.427-19.64c2.5-0.886,5.362,0.268,6.323,2.74c0.994,2.558-0.328,5.413-2.896,6.323l-50.587,17.925
		l45.063,18.225c5.642,2.469,12.059,2.469,17.701,0l98.494-39.835C255.755,116.166,255.603,110.93,251.861,109.546z"/>
</g>
</svg>
